<svg width="37" height="44" viewBox="0 0 37 44" fill="none" xmlns="http://www.w3.org/2000/svg">
<path d="M24.2625 4.44705L26.1213 1.06194C26.1451 1.01856 26.1602 0.970884 26.1657 0.921626C26.1712 0.872368 26.1671 0.822496 26.1535 0.774855C26.1399 0.727214 26.1172 0.682739 26.0866 0.643969C26.056 0.605198 26.0181 0.572892 25.9752 0.548894C25.9322 0.524896 25.8849 0.509676 25.8361 0.504104C25.7873 0.498532 25.7379 0.502717 25.6907 0.516419C25.6435 0.530122 25.5995 0.553073 25.5611 0.583964C25.5227 0.614854 25.4906 0.653079 25.4669 0.696455L23.5886 4.11675C21.9853 3.40718 20.2536 3.04084 18.5029 3.04084C16.7522 3.04084 15.0205 3.40718 13.4172 4.11675L11.5389 0.696455C11.4909 0.608335 11.4102 0.543077 11.3145 0.515037C11.2188 0.486998 11.116 0.498473 11.0287 0.546939C10.9414 0.595405 10.8768 0.676892 10.849 0.773473C10.8212 0.870054 10.8326 0.973818 10.8806 1.06194L12.7395 4.44705C10.9708 5.32752 9.4765 6.68256 8.4204 8.3636C7.36431 10.0446 6.7872 11.9868 6.75237 13.977H30.2534C30.2183 11.9863 29.6406 10.0439 28.5838 8.36287C27.527 6.68179 26.0319 5.32698 24.2625 4.44705ZM13.0802 9.63613C12.886 9.63613 12.6961 9.57797 12.5346 9.469C12.3732 9.36003 12.2473 9.20515 12.1731 9.02398C12.0988 8.8428 12.0795 8.64346 12.1175 8.45119C12.1556 8.25892 12.2493 8.08236 12.3868 7.94385C12.5243 7.80535 12.6994 7.71113 12.8899 7.67312C13.0805 7.6351 13.2779 7.65501 13.4573 7.73031C13.6366 7.8056 13.7898 7.93292 13.8975 8.09613C14.0051 8.25934 14.0623 8.45111 14.062 8.64718C14.0615 8.90965 13.9578 9.16118 13.7737 9.34659C13.5897 9.532 13.3403 9.63613 13.0802 9.63613ZM23.9275 9.63613C23.7333 9.63613 23.5434 9.57797 23.3819 9.469C23.2204 9.36003 23.0946 9.20515 23.0203 9.02398C22.9461 8.8428 22.9268 8.64346 22.9648 8.45119C23.0028 8.25892 23.0965 8.08236 23.234 7.94385C23.3715 7.80535 23.5466 7.71113 23.7372 7.67312C23.9277 7.6351 24.1252 7.65501 24.3045 7.73031C24.4839 7.8056 24.6371 7.93292 24.7447 8.09613C24.8523 8.25934 24.9096 8.45111 24.9092 8.64718C24.9087 8.90965 24.805 9.16118 24.621 9.34659C24.4369 9.532 24.1875 9.63613 23.9275 9.63613ZM6.74849 32.1065C6.74798 32.4839 6.82127 32.8576 6.96416 33.2063C7.10705 33.555 7.31672 33.8718 7.58116 34.1385C7.8456 34.4053 8.1596 34.6167 8.50516 34.7607C8.85072 34.9046 9.22104 34.9784 9.59488 34.9776H11.4789V40.841C11.4789 41.5462 11.7565 42.2225 12.2505 42.7212C12.7445 43.2199 13.4146 43.5 14.1133 43.5C14.8119 43.5 15.482 43.2199 15.976 42.7212C16.4701 42.2225 16.7476 41.5462 16.7476 40.841V34.9776H20.2601V40.841C20.2601 41.5459 20.5376 42.222 21.0314 42.7205C21.5253 43.219 22.1951 43.499 22.8935 43.499C23.5919 43.499 24.2617 43.219 24.7556 42.7205C25.2494 42.222 25.5269 41.5459 25.5269 40.841V34.9776H27.4129C27.7862 34.9779 28.156 34.9038 28.501 34.7597C28.8459 34.6156 29.1594 34.4043 29.4234 34.1378C29.6874 33.8713 29.8968 33.555 30.0395 33.2067C30.1823 32.8585 30.2556 32.4853 30.2554 32.1085V14.9151H6.74849V32.1065ZM3.13339 14.4578C2.43495 14.4588 1.76544 14.7395 1.27175 15.2381C0.77806 15.7368 0.500512 16.4128 0.5 17.1178V28.1976C0.5 28.5467 0.568114 28.8923 0.700455 29.2148C0.832795 29.5373 1.02677 29.8303 1.2713 30.0771C1.51584 30.3239 1.80614 30.5197 2.12564 30.6533C2.44513 30.7869 2.78757 30.8557 3.13339 30.8557C3.47921 30.8557 3.82165 30.7869 4.14115 30.6533C4.46064 30.5197 4.75095 30.3239 4.99548 30.0771C5.24001 29.8303 5.43399 29.5373 5.56633 29.2148C5.69867 28.8923 5.76678 28.5467 5.76678 28.1976V17.1178C5.76576 16.4131 5.48798 15.7377 4.99435 15.2394C4.50071 14.7411 3.8315 14.4608 3.13339 14.4597V14.4578ZM33.8666 14.4578C33.1682 14.4588 32.4987 14.7395 32.005 15.2381C31.5113 15.7368 31.2337 16.4128 31.2332 17.1178V28.1976C31.2332 28.5467 31.3013 28.8923 31.4337 29.2148C31.566 29.5373 31.76 29.8303 32.0045 30.0771C32.2491 30.3239 32.5394 30.5197 32.8589 30.6533C33.1784 30.7869 33.5208 30.8557 33.8666 30.8557C34.2124 30.8557 34.5549 30.7869 34.8744 30.6533C35.1939 30.5197 35.4842 30.3239 35.7287 30.0771C35.9732 29.8303 36.1672 29.5373 36.2995 29.2148C36.4319 28.8923 36.5 28.5467 36.5 28.1976V17.1178C36.499 16.4131 36.2212 15.7377 35.7276 15.2394C35.2339 14.7411 34.5647 14.4608 33.8666 14.4597V14.4578Z" fill="white"/>
</svg>
