<svg width="421" height="364" viewBox="0 0 421 364" fill="none" xmlns="http://www.w3.org/2000/svg">
<path d="M3.304 34V0.399998H19.048L27.64 17.44V8.608V0.399998H39.4V34H25.816L15.064 12.544V22.336V34H3.304ZM46.4395 31.408C43.8155 29.072 42.5035 25.904 42.5035 21.904C42.5035 17.904 43.8315 14.736 46.4875 12.4C49.1435 10.064 52.7435 8.896 57.2875 8.896C61.8635 8.896 65.4955 10.08 68.1835 12.448C70.9035 14.784 72.2635 17.936 72.2635 21.904C72.2635 25.872 70.9035 29.024 68.1835 31.36C65.4955 33.696 61.8635 34.864 57.2875 34.864C52.7115 34.864 49.0955 33.712 46.4395 31.408ZM60.0235 21.808C60.0235 19.824 59.7995 18.4 59.3515 17.536C58.9355 16.64 58.2635 16.192 57.3355 16.192C56.4075 16.192 55.7355 16.624 55.3195 17.488C54.9355 18.352 54.7435 19.792 54.7435 21.808C54.7435 23.856 54.9355 25.328 55.3195 26.224C55.7355 27.12 56.4075 27.568 57.3355 27.568C59.1275 27.568 60.0235 25.648 60.0235 21.808ZM73.3818 26.944L83.9898 26.128C84.0858 27.76 85.0458 28.576 86.8698 28.576C88.5338 28.576 89.3658 28.064 89.3658 27.04C89.3658 26.208 88.5338 25.632 86.8698 25.312L84.1818 24.832C80.6618 24.192 78.1818 23.328 76.7418 22.24C75.3018 21.12 74.5818 19.376 74.5818 17.008C74.5818 14.672 75.6538 12.736 77.7978 11.2C79.9418 9.664 83.0138 8.896 87.0138 8.896C91.2698 8.896 94.3578 9.568 96.2778 10.912C98.1978 12.224 99.3338 13.856 99.6858 15.808L89.1258 17.152C88.8698 15.648 87.9578 14.896 86.3898 14.896C85.1418 14.896 84.5178 15.36 84.5178 16.288C84.5178 16.736 84.7258 17.072 85.1418 17.296C85.5578 17.52 86.3098 17.712 87.3978 17.872L90.9978 18.448C97.2378 19.408 100.358 22.08 100.358 26.464C100.358 29.056 99.2058 31.104 96.9018 32.608C94.6298 34.112 91.2538 34.864 86.7738 34.864C82.1018 34.864 78.7738 34.08 76.7898 32.512C74.8058 30.912 73.6698 29.056 73.3818 26.944ZM101.413 26.944L112.021 26.128C112.117 27.76 113.077 28.576 114.901 28.576C116.565 28.576 117.397 28.064 117.397 27.04C117.397 26.208 116.565 25.632 114.901 25.312L112.213 24.832C108.693 24.192 106.213 23.328 104.773 22.24C103.333 21.12 102.613 19.376 102.613 17.008C102.613 14.672 103.685 12.736 105.829 11.2C107.973 9.664 111.045 8.896 115.045 8.896C119.301 8.896 122.389 9.568 124.309 10.912C126.229 12.224 127.365 13.856 127.717 15.808L117.157 17.152C116.901 15.648 115.989 14.896 114.421 14.896C113.173 14.896 112.549 15.36 112.549 16.288C112.549 16.736 112.757 17.072 113.173 17.296C113.589 17.52 114.341 17.712 115.429 17.872L119.029 18.448C125.269 19.408 128.389 22.08 128.389 26.464C128.389 29.056 127.237 31.104 124.933 32.608C122.661 34.112 119.285 34.864 114.805 34.864C110.133 34.864 106.805 34.08 104.821 32.512C102.837 30.912 101.701 29.056 101.413 26.944ZM130.164 27.616C130.164 24.96 131.524 22.864 134.244 21.328C136.996 19.76 140.884 18.848 145.908 18.592V17.824C145.908 16.256 145.108 15.472 143.508 15.472C142.644 15.472 142.004 15.68 141.588 16.096C141.204 16.48 140.932 17.168 140.772 18.16L129.78 16.864C130.164 14.368 131.62 12.416 134.148 11.008C136.708 9.6 140.036 8.896 144.132 8.896C148.164 8.896 151.268 9.76 153.444 11.488C155.62 13.184 156.708 15.616 156.708 18.784V24.784C156.708 25.808 157.092 26.32 157.86 26.32H159.3V34H153.06C151.268 34 149.924 33.728 149.028 33.184C148.132 32.64 147.54 31.76 147.252 30.544C146.548 31.664 145.428 32.672 143.892 33.568C142.388 34.432 140.66 34.864 138.708 34.864C135.924 34.864 133.796 34.24 132.324 32.992C130.884 31.744 130.164 29.952 130.164 27.616ZM145.908 24.448V23.104C142.644 23.392 141.012 24.464 141.012 26.32C141.012 26.864 141.188 27.296 141.54 27.616C141.892 27.936 142.34 28.096 142.884 28.096C143.748 28.096 144.468 27.76 145.044 27.088C145.62 26.384 145.908 25.504 145.908 24.448ZM2.728 90.36V56.76H14.104V59.832C15.64 57.208 18.04 55.896 21.304 55.896C24.504 55.896 27.016 57.08 28.84 59.448C30.664 61.816 31.576 64.968 31.576 68.904C31.576 72.808 30.632 75.944 28.744 78.312C26.888 80.68 24.408 81.864 21.304 81.864C19.8 81.864 18.408 81.512 17.128 80.808C15.88 80.104 14.872 79.16 14.104 77.976V81.048V90.36H2.728ZM19.672 68.808C19.672 65.064 18.712 63.192 16.792 63.192C14.872 63.192 13.912 65.064 13.912 68.808C13.912 72.68 14.872 74.616 16.792 74.616C18.712 74.616 19.672 72.68 19.672 68.808ZM34.228 81V47.4H45.652V81H34.228ZM48.3674 74.616C48.3674 71.96 49.7274 69.864 52.4474 68.328C55.1994 66.76 59.0874 65.848 64.1114 65.592V64.824C64.1114 63.256 63.3114 62.472 61.7114 62.472C60.8474 62.472 60.2074 62.68 59.7914 63.096C59.4074 63.48 59.1354 64.168 58.9754 65.16L47.9834 63.864C48.3674 61.368 49.8234 59.416 52.3514 58.008C54.9114 56.6 58.2394 55.896 62.3354 55.896C66.3674 55.896 69.4714 56.76 71.6474 58.488C73.8234 60.184 74.9114 62.616 74.9114 65.784V71.784C74.9114 72.808 75.2954 73.32 76.0634 73.32H77.5034V81H71.2634C69.4714 81 68.1274 80.728 67.2314 80.184C66.3354 79.64 65.7434 78.76 65.4554 77.544C64.7514 78.664 63.6314 79.672 62.0954 80.568C60.5914 81.432 58.8634 81.864 56.9114 81.864C54.1274 81.864 51.9994 81.24 50.5274 79.992C49.0874 78.744 48.3674 76.952 48.3674 74.616ZM64.1114 71.448V70.104C60.8474 70.392 59.2154 71.464 59.2154 73.32C59.2154 73.864 59.3914 74.296 59.7434 74.616C60.0954 74.936 60.5434 75.096 61.0874 75.096C61.9514 75.096 62.6714 74.76 63.2474 74.088C63.8234 73.384 64.1114 72.504 64.1114 71.448ZM80.6571 72.84V63.96H76.2411V56.76H80.6571V49.56H91.9371V56.76H96.7851V63.96H91.9371V71.4C91.9371 72.36 92.4171 72.84 93.3771 72.84H98.0811V81H88.8171C83.3771 81 80.6571 78.28 80.6571 72.84ZM99.6486 74.616C99.6486 71.96 101.009 69.864 103.729 68.328C106.481 66.76 110.369 65.848 115.393 65.592V64.824C115.393 63.256 114.593 62.472 112.993 62.472C112.129 62.472 111.489 62.68 111.073 63.096C110.689 63.48 110.417 64.168 110.257 65.16L99.2646 63.864C99.6486 61.368 101.105 59.416 103.633 58.008C106.193 56.6 109.521 55.896 113.617 55.896C117.649 55.896 120.753 56.76 122.929 58.488C125.105 60.184 126.193 62.616 126.193 65.784V71.784C126.193 72.808 126.577 73.32 127.345 73.32H128.785V81H122.545C120.753 81 119.409 80.728 118.513 80.184C117.617 79.64 117.025 78.76 116.737 77.544C116.033 78.664 114.913 79.672 113.377 80.568C111.873 81.432 110.145 81.864 108.193 81.864C105.409 81.864 103.281 81.24 101.809 79.992C100.369 78.744 99.6486 76.952 99.6486 74.616ZM115.393 71.448V70.104C112.129 70.392 110.497 71.464 110.497 73.32C110.497 73.864 110.673 74.296 111.025 74.616C111.377 74.936 111.825 75.096 112.369 75.096C113.233 75.096 113.953 74.76 114.529 74.088C115.105 73.384 115.393 72.504 115.393 71.448ZM132.08 81V63.96H128V56.76H132.08V54.984C132.08 52.136 132.768 50.024 134.144 48.648C135.52 47.272 137.632 46.584 140.48 46.584H149.744V53.784H144.56C143.6 53.784 143.12 54.264 143.12 55.224V56.76H148.544V63.96H143.12V81H132.08ZM152.565 78.408C149.941 76.072 148.629 72.904 148.629 68.904C148.629 64.904 149.957 61.736 152.613 59.4C155.269 57.064 158.869 55.896 163.413 55.896C167.989 55.896 171.621 57.08 174.309 59.448C177.029 61.784 178.389 64.936 178.389 68.904C178.389 72.872 177.029 76.024 174.309 78.36C171.621 80.696 167.989 81.864 163.413 81.864C158.837 81.864 155.221 80.712 152.565 78.408ZM166.149 68.808C166.149 66.824 165.925 65.4 165.477 64.536C165.061 63.64 164.389 63.192 163.461 63.192C162.533 63.192 161.861 63.624 161.445 64.488C161.061 65.352 160.869 66.792 160.869 68.808C160.869 70.856 161.061 72.328 161.445 73.224C161.861 74.12 162.533 74.568 163.461 74.568C165.253 74.568 166.149 72.648 166.149 68.808ZM180.947 81V56.76H192.227V63.672C193.571 58.552 196.147 55.992 199.955 55.992C200.915 55.992 201.843 56.088 202.739 56.28V66.6C201.331 66.312 200.035 66.168 198.851 66.168C194.755 66.168 192.707 68.248 192.707 72.408V81H180.947ZM204.947 81V56.76H216.179V60.936C216.883 59.56 217.955 58.376 219.395 57.384C220.835 56.392 222.451 55.896 224.243 55.896C225.811 55.896 227.203 56.344 228.419 57.24C229.635 58.104 230.531 59.336 231.107 60.936C231.843 59.464 232.883 58.264 234.227 57.336C235.571 56.376 237.155 55.896 238.979 55.896C241.283 55.896 243.219 56.68 244.787 58.248C246.387 59.784 247.187 61.96 247.187 64.776V81H235.571V66.6C235.571 65.832 235.395 65.224 235.043 64.776C234.691 64.328 234.227 64.104 233.651 64.104C233.075 64.104 232.595 64.328 232.211 64.776C231.859 65.224 231.683 65.832 231.683 66.6V81H220.451V66.6C220.451 65.832 220.259 65.224 219.875 64.776C219.523 64.328 219.059 64.104 218.483 64.104C217.907 64.104 217.443 64.328 217.091 64.776C216.739 65.224 216.563 65.832 216.563 66.6V81H204.947ZM249.742 74.616C249.742 71.96 251.102 69.864 253.822 68.328C256.574 66.76 260.462 65.848 265.486 65.592V64.824C265.486 63.256 264.686 62.472 263.086 62.472C262.222 62.472 261.582 62.68 261.166 63.096C260.782 63.48 260.51 64.168 260.35 65.16L249.358 63.864C249.742 61.368 251.198 59.416 253.726 58.008C256.286 56.6 259.614 55.896 263.71 55.896C267.742 55.896 270.846 56.76 273.022 58.488C275.198 60.184 276.286 62.616 276.286 65.784V71.784C276.286 72.808 276.67 73.32 277.438 73.32H278.878V81H272.638C270.846 81 269.502 80.728 268.606 80.184C267.71 79.64 267.118 78.76 266.83 77.544C266.126 78.664 265.006 79.672 263.47 80.568C261.966 81.432 260.238 81.864 258.286 81.864C255.502 81.864 253.374 81.24 251.902 79.992C250.462 78.744 249.742 76.952 249.742 74.616ZM265.486 71.448V70.104C262.222 70.392 260.59 71.464 260.59 73.32C260.59 73.864 260.766 74.296 261.118 74.616C261.47 74.936 261.918 75.096 262.462 75.096C263.326 75.096 264.046 74.76 264.622 74.088C265.198 73.384 265.486 72.504 265.486 71.448ZM2.728 137.36V103.76H14.104V106.832C15.64 104.208 18.04 102.896 21.304 102.896C24.504 102.896 27.016 104.08 28.84 106.448C30.664 108.816 31.576 111.968 31.576 115.904C31.576 119.808 30.632 122.944 28.744 125.312C26.888 127.68 24.408 128.864 21.304 128.864C19.8 128.864 18.408 128.512 17.128 127.808C15.88 127.104 14.872 126.16 14.104 124.976V128.048V137.36H2.728ZM19.672 115.808C19.672 112.064 18.712 110.192 16.792 110.192C14.872 110.192 13.912 112.064 13.912 115.808C13.912 119.68 14.872 121.616 16.792 121.616C18.712 121.616 19.672 119.68 19.672 115.808ZM37.252 125.408C34.628 123.072 33.316 119.904 33.316 115.904C33.316 111.904 34.644 108.736 37.3 106.4C39.956 104.064 43.556 102.896 48.1 102.896C52.676 102.896 56.308 104.08 58.996 106.448C61.716 108.784 63.076 111.936 63.076 115.904C63.076 119.872 61.716 123.024 58.996 125.36C56.308 127.696 52.676 128.864 48.1 128.864C43.524 128.864 39.908 127.712 37.252 125.408ZM50.836 115.808C50.836 113.824 50.612 112.4 50.164 111.536C49.748 110.64 49.076 110.192 48.148 110.192C47.22 110.192 46.548 110.624 46.132 111.488C45.748 112.352 45.556 113.792 45.556 115.808C45.556 117.856 45.748 119.328 46.132 120.224C46.548 121.12 47.22 121.568 48.148 121.568C49.94 121.568 50.836 119.648 50.836 115.808ZM64.1943 120.944L74.8023 120.128C74.8983 121.76 75.8583 122.576 77.6823 122.576C79.3463 122.576 80.1783 122.064 80.1783 121.04C80.1783 120.208 79.3463 119.632 77.6823 119.312L74.9943 118.832C71.4743 118.192 68.9943 117.328 67.5543 116.24C66.1143 115.12 65.3943 113.376 65.3943 111.008C65.3943 108.672 66.4663 106.736 68.6103 105.2C70.7543 103.664 73.8263 102.896 77.8263 102.896C82.0823 102.896 85.1703 103.568 87.0903 104.912C89.0103 106.224 90.1463 107.856 90.4983 109.808L79.9383 111.152C79.6823 109.648 78.7703 108.896 77.2023 108.896C75.9543 108.896 75.3303 109.36 75.3303 110.288C75.3303 110.736 75.5383 111.072 75.9543 111.296C76.3703 111.52 77.1223 111.712 78.2103 111.872L81.8103 112.448C88.0503 113.408 91.1703 116.08 91.1703 120.464C91.1703 123.056 90.0183 125.104 87.7143 126.608C85.4423 128.112 82.0663 128.864 77.5863 128.864C72.9143 128.864 69.5863 128.08 67.6023 126.512C65.6183 124.912 64.4823 123.056 64.1943 120.944ZM92.2255 120.944L102.834 120.128C102.93 121.76 103.89 122.576 105.714 122.576C107.378 122.576 108.21 122.064 108.21 121.04C108.21 120.208 107.378 119.632 105.714 119.312L103.026 118.832C99.5055 118.192 97.0255 117.328 95.5855 116.24C94.1455 115.12 93.4255 113.376 93.4255 111.008C93.4255 108.672 94.4975 106.736 96.6415 105.2C98.7855 103.664 101.858 102.896 105.858 102.896C110.114 102.896 113.202 103.568 115.122 104.912C117.042 106.224 118.178 107.856 118.53 109.808L107.97 111.152C107.714 109.648 106.802 108.896 105.234 108.896C103.986 108.896 103.362 109.36 103.362 110.288C103.362 110.736 103.57 111.072 103.986 111.296C104.402 111.52 105.154 111.712 106.242 111.872L109.842 112.448C116.082 113.408 119.202 116.08 119.202 120.464C119.202 123.056 118.05 125.104 115.746 126.608C113.474 128.112 110.098 128.864 105.618 128.864C100.946 128.864 97.6175 128.08 95.6335 126.512C93.6495 124.912 92.5135 123.056 92.2255 120.944ZM121.649 101.36V92.96H133.457V101.36H121.649ZM121.697 128V103.76H133.457V128H121.697ZM148.259 124.928V128H136.883V94.4H148.259V103.712V106.784C149.027 105.6 150.035 104.656 151.283 103.952C152.563 103.248 153.955 102.896 155.459 102.896C158.563 102.896 161.043 104.08 162.899 106.448C164.787 108.816 165.731 111.952 165.731 115.856C165.731 119.792 164.819 122.944 162.995 125.312C161.171 127.68 158.659 128.864 155.459 128.864C152.387 128.864 149.987 127.552 148.259 124.928ZM153.827 115.808C153.827 112.064 152.867 110.192 150.947 110.192C149.027 110.192 148.067 112.064 148.067 115.808C148.067 119.68 149.027 121.616 150.947 121.616C152.867 121.616 153.827 119.68 153.827 115.808ZM168.336 101.36V92.96H180.144V101.36H168.336ZM168.384 128V103.76H180.144V128H168.384ZM183.619 128V94.4H195.043V128H183.619ZM198.43 101.36V92.96H210.238V101.36H198.43ZM198.478 128V103.76H210.238V128H198.478ZM216.688 119.84V110.96H212.272V103.76H216.688V96.56H227.968V103.76H232.816V110.96H227.968V118.4C227.968 119.36 228.448 119.84 229.408 119.84H234.112V128H224.848C219.408 128 216.688 125.28 216.688 119.84ZM235.68 121.616C235.68 118.96 237.04 116.864 239.76 115.328C242.512 113.76 246.4 112.848 251.424 112.592V111.824C251.424 110.256 250.624 109.472 249.024 109.472C248.16 109.472 247.52 109.68 247.104 110.096C246.72 110.48 246.448 111.168 246.288 112.16L235.296 110.864C235.68 108.368 237.136 106.416 239.664 105.008C242.224 103.6 245.552 102.896 249.648 102.896C253.68 102.896 256.784 103.76 258.96 105.488C261.136 107.184 262.224 109.616 262.224 112.784V118.784C262.224 119.808 262.608 120.32 263.376 120.32H264.816V128H258.576C256.784 128 255.44 127.728 254.544 127.184C253.648 126.64 253.056 125.76 252.768 124.544C252.064 125.664 250.944 126.672 249.408 127.568C247.904 128.432 246.176 128.864 244.224 128.864C241.44 128.864 239.312 128.24 237.84 126.992C236.4 125.744 235.68 123.952 235.68 121.616ZM251.424 118.448V117.104C248.16 117.392 246.528 118.464 246.528 120.32C246.528 120.864 246.704 121.296 247.056 121.616C247.408 121.936 247.856 122.096 248.4 122.096C249.264 122.096 249.984 121.76 250.56 121.088C251.136 120.384 251.424 119.504 251.424 118.448ZM291.915 137.36V128.048V124.976C291.147 126.16 290.123 127.104 288.843 127.808C287.595 128.512 286.219 128.864 284.715 128.864C281.611 128.864 279.115 127.68 277.227 125.312C275.371 122.944 274.443 119.808 274.443 115.904C274.443 111.968 275.355 108.816 277.179 106.448C279.003 104.08 281.515 102.896 284.715 102.896C287.979 102.896 290.379 104.208 291.915 106.832V103.76H303.291V137.36H291.915ZM292.107 115.808C292.107 112.064 291.147 110.192 289.227 110.192C287.307 110.192 286.347 112.064 286.347 115.808C286.347 119.68 287.307 121.616 289.227 121.616C291.147 121.616 292.107 119.68 292.107 115.808ZM306.567 119.984V103.76H318.327V118.112C318.327 118.88 318.519 119.504 318.903 119.984C319.319 120.432 319.831 120.656 320.439 120.656C321.015 120.656 321.495 120.432 321.879 119.984C322.263 119.504 322.455 118.88 322.455 118.112V103.76H334.023V128H322.983V124.736C322.311 125.824 321.239 126.784 319.767 127.616C318.327 128.448 316.695 128.864 314.871 128.864C312.599 128.864 310.647 128.096 309.015 126.56C307.383 125.024 306.567 122.832 306.567 119.984ZM336.55 115.712C336.55 111.936 337.846 108.864 340.438 106.496C343.03 104.096 346.374 102.896 350.47 102.896C354.918 102.896 358.342 104.016 360.742 106.256C363.142 108.496 364.342 111.568 364.342 115.472C364.342 116.272 364.294 117.072 364.198 117.872H347.782C347.782 120.432 348.694 121.712 350.518 121.712C352.118 121.712 353.254 120.768 353.926 118.88L364.63 121.472C362.422 126.4 357.734 128.864 350.566 128.864C346.054 128.864 342.582 127.728 340.15 125.456C337.75 123.184 336.55 119.936 336.55 115.712ZM347.878 113.072H353.206C353.27 112.016 353.046 111.168 352.534 110.528C352.054 109.888 351.398 109.568 350.566 109.568C348.806 109.568 347.91 110.736 347.878 113.072ZM8.776 175L0.568 150.76H12.664L13.816 155.32L16.696 166.744C17.976 161.496 18.904 157.784 19.48 155.608L20.728 150.76H31.864L24.04 175H8.776ZM34.252 172.408C31.628 170.072 30.316 166.904 30.316 162.904C30.316 158.904 31.644 155.736 34.3 153.4C36.956 151.064 40.556 149.896 45.1 149.896C49.676 149.896 53.308 151.08 55.996 153.448C58.716 155.784 60.076 158.936 60.076 162.904C60.076 166.872 58.716 170.024 55.996 172.36C53.308 174.696 49.676 175.864 45.1 175.864C40.524 175.864 36.908 174.712 34.252 172.408ZM47.836 162.808C47.836 160.824 47.612 159.4 47.164 158.536C46.748 157.64 46.076 157.192 45.148 157.192C44.22 157.192 43.548 157.624 43.132 158.488C42.748 159.352 42.556 160.792 42.556 162.808C42.556 164.856 42.748 166.328 43.132 167.224C43.548 168.12 44.22 168.568 45.148 168.568C46.94 168.568 47.836 166.648 47.836 162.808ZM61.7223 163.096C61.7223 159.128 62.9863 155.944 65.5143 153.544C68.0423 151.112 71.4183 149.896 75.6423 149.896C79.3543 149.896 82.4263 150.712 84.8583 152.344C87.3223 153.976 88.8743 156.232 89.5143 159.112L78.5703 161.32C78.3143 158.536 77.3223 157.144 75.5943 157.144C73.7703 157.144 72.8583 159.032 72.8583 162.808C72.8583 166.68 73.7703 168.616 75.5943 168.616C77.1943 168.616 78.1863 167.224 78.5703 164.44L89.7063 165.832C88.3943 172.52 83.7063 175.864 75.6423 175.864C71.2583 175.864 67.8343 174.728 65.3703 172.456C62.9383 170.152 61.7223 167.032 61.7223 163.096ZM90.8785 162.712C90.8785 158.936 92.1745 155.864 94.7665 153.496C97.3585 151.096 100.703 149.896 104.799 149.896C109.247 149.896 112.671 151.016 115.071 153.256C117.471 155.496 118.671 158.568 118.671 162.472C118.671 163.272 118.623 164.072 118.527 164.872H102.111C102.111 167.432 103.023 168.712 104.847 168.712C106.447 168.712 107.583 167.768 108.255 165.88L118.959 168.472C116.751 173.4 112.063 175.864 104.895 175.864C100.383 175.864 96.9105 174.728 94.4785 172.456C92.0785 170.184 90.8785 166.936 90.8785 162.712ZM102.207 160.072H107.535C107.599 159.016 107.375 158.168 106.863 157.528C106.383 156.888 105.727 156.568 104.895 156.568C103.135 156.568 102.239 157.736 102.207 160.072ZM93.1825 147.832L98.7505 140.44H110.847L116.415 147.832H107.583L104.799 144.28L102.015 147.832H93.1825ZM128.894 163.096C128.894 159.128 130.158 155.944 132.686 153.544C135.214 151.112 138.59 149.896 142.814 149.896C146.526 149.896 149.598 150.712 152.03 152.344C154.494 153.976 156.046 156.232 156.686 159.112L145.742 161.32C145.486 158.536 144.494 157.144 142.766 157.144C140.942 157.144 140.03 159.032 140.03 162.808C140.03 166.68 140.942 168.616 142.766 168.616C144.366 168.616 145.358 167.224 145.742 164.44L156.878 165.832C155.566 172.52 150.878 175.864 142.814 175.864C138.43 175.864 135.006 174.728 132.542 172.456C130.11 170.152 128.894 167.032 128.894 163.096ZM161.986 172.408C159.362 170.072 158.05 166.904 158.05 162.904C158.05 158.904 159.378 155.736 162.034 153.4C164.69 151.064 168.29 149.896 172.834 149.896C177.41 149.896 181.042 151.08 183.73 153.448C186.45 155.784 187.81 158.936 187.81 162.904C187.81 166.872 186.45 170.024 183.73 172.36C181.042 174.696 177.41 175.864 172.834 175.864C168.258 175.864 164.642 174.712 161.986 172.408ZM175.57 162.808C175.57 160.824 175.346 159.4 174.898 158.536C174.482 157.64 173.81 157.192 172.882 157.192C171.954 157.192 171.282 157.624 170.866 158.488C170.482 159.352 170.29 160.792 170.29 162.808C170.29 164.856 170.482 166.328 170.866 167.224C171.282 168.12 171.954 168.568 172.882 168.568C174.674 168.568 175.57 166.648 175.57 162.808ZM189.372 175V166.216L200.268 158.44H193.932H190.044V150.76H212.124V158.536L200.412 166.84H210.3H212.604V175H189.372ZM215.539 148.36V139.96H227.347V148.36H215.539ZM215.587 175V150.76H227.347V175H215.587ZM230.822 175V150.76H242.006V154.696C242.71 153.256 243.814 152.104 245.318 151.24C246.854 150.344 248.486 149.896 250.214 149.896C252.774 149.896 254.774 150.68 256.214 152.248C257.654 153.816 258.374 155.992 258.374 158.776V175H246.662V160.552C246.662 158.92 245.958 158.104 244.55 158.104C243.942 158.104 243.446 158.328 243.062 158.776C242.71 159.192 242.534 159.784 242.534 160.552V175H230.822ZM261.571 175V141.4H272.803V151.72V154.696C273.443 153.384 274.499 152.264 275.971 151.336C277.443 150.376 279.107 149.896 280.963 149.896C283.395 149.896 285.363 150.664 286.867 152.2C288.403 153.704 289.171 155.896 289.171 158.776V175H277.411V160.552C277.411 159.784 277.219 159.192 276.835 158.776C276.451 158.328 275.955 158.104 275.347 158.104C274.739 158.104 274.243 158.328 273.859 158.776C273.507 159.224 273.331 159.816 273.331 160.552V175H261.571ZM291.504 162.712C291.504 158.936 292.8 155.864 295.392 153.496C297.984 151.096 301.328 149.896 305.424 149.896C309.872 149.896 313.296 151.016 315.696 153.256C318.096 155.496 319.296 158.568 319.296 162.472C319.296 163.272 319.248 164.072 319.152 164.872H302.736C302.736 167.432 303.648 168.712 305.472 168.712C307.072 168.712 308.208 167.768 308.88 165.88L319.584 168.472C317.376 173.4 312.688 175.864 305.52 175.864C301.008 175.864 297.536 174.728 295.104 172.456C292.704 170.184 291.504 166.936 291.504 162.712ZM302.832 160.072H308.16C308.224 159.016 308 158.168 307.488 157.528C307.008 156.888 306.352 156.568 305.52 156.568C303.76 156.568 302.864 157.736 302.832 160.072ZM1.816 210.096C1.816 206.128 3.08 202.944 5.608 200.544C8.136 198.112 11.512 196.896 15.736 196.896C19.448 196.896 22.52 197.712 24.952 199.344C27.416 200.976 28.968 203.232 29.608 206.112L18.664 208.32C18.408 205.536 17.416 204.144 15.688 204.144C13.864 204.144 12.952 206.032 12.952 209.808C12.952 213.68 13.864 215.616 15.688 215.616C17.288 215.616 18.28 214.224 18.664 211.44L29.8 212.832C28.488 219.52 23.8 222.864 15.736 222.864C11.352 222.864 7.928 221.728 5.464 219.456C3.032 217.152 1.816 214.032 1.816 210.096ZM34.9083 219.408C32.2843 217.072 30.9723 213.904 30.9723 209.904C30.9723 205.904 32.3003 202.736 34.9563 200.4C37.6123 198.064 41.2123 196.896 45.7563 196.896C50.3323 196.896 53.9643 198.08 56.6523 200.448C59.3723 202.784 60.7323 205.936 60.7323 209.904C60.7323 213.872 59.3723 217.024 56.6523 219.36C53.9643 221.696 50.3323 222.864 45.7563 222.864C41.1803 222.864 37.5643 221.712 34.9083 219.408ZM48.4923 209.808C48.4923 207.824 48.2683 206.4 47.8203 205.536C47.4043 204.64 46.7323 204.192 45.8043 204.192C44.8763 204.192 44.2043 204.624 43.7883 205.488C43.4043 206.352 43.2123 207.792 43.2123 209.808C43.2123 211.856 43.4043 213.328 43.7883 214.224C44.2043 215.12 44.8763 215.568 45.8043 215.568C47.5963 215.568 48.4923 213.648 48.4923 209.808ZM63.2905 222V197.76H74.5225V201.936C75.2265 200.56 76.2985 199.376 77.7385 198.384C79.1785 197.392 80.7945 196.896 82.5865 196.896C84.1545 196.896 85.5465 197.344 86.7625 198.24C87.9785 199.104 88.8745 200.336 89.4505 201.936C90.1865 200.464 91.2265 199.264 92.5705 198.336C93.9145 197.376 95.4985 196.896 97.3225 196.896C99.6265 196.896 101.563 197.68 103.131 199.248C104.731 200.784 105.531 202.96 105.531 205.776V222H93.9145V207.6C93.9145 206.832 93.7385 206.224 93.3865 205.776C93.0345 205.328 92.5705 205.104 91.9945 205.104C91.4185 205.104 90.9385 205.328 90.5545 205.776C90.2025 206.224 90.0265 206.832 90.0265 207.6V222H78.7945V207.6C78.7945 206.832 78.6025 206.224 78.2185 205.776C77.8665 205.328 77.4025 205.104 76.8265 205.104C76.2505 205.104 75.7865 205.328 75.4345 205.776C75.0825 206.224 74.9065 206.832 74.9065 207.6V222H63.2905ZM120.221 219.408C117.597 217.072 116.285 213.904 116.285 209.904C116.285 205.904 117.613 202.736 120.269 200.4C122.925 198.064 126.525 196.896 131.069 196.896C135.645 196.896 139.277 198.08 141.965 200.448C144.685 202.784 146.045 205.936 146.045 209.904C146.045 213.872 144.685 217.024 141.965 219.36C139.277 221.696 135.645 222.864 131.069 222.864C126.493 222.864 122.877 221.712 120.221 219.408ZM133.805 209.808C133.805 207.824 133.581 206.4 133.133 205.536C132.717 204.64 132.045 204.192 131.117 204.192C130.189 204.192 129.517 204.624 129.101 205.488C128.717 206.352 128.525 207.792 128.525 209.808C128.525 211.856 128.717 213.328 129.101 214.224C129.517 215.12 130.189 215.568 131.117 215.568C132.909 215.568 133.805 213.648 133.805 209.808ZM147.163 214.944L157.771 214.128C157.867 215.76 158.827 216.576 160.651 216.576C162.315 216.576 163.147 216.064 163.147 215.04C163.147 214.208 162.315 213.632 160.651 213.312L157.963 212.832C154.443 212.192 151.963 211.328 150.523 210.24C149.083 209.12 148.363 207.376 148.363 205.008C148.363 202.672 149.435 200.736 151.579 199.2C153.723 197.664 156.795 196.896 160.795 196.896C165.051 196.896 168.139 197.568 170.059 198.912C171.979 200.224 173.115 201.856 173.467 203.808L162.907 205.152C162.651 203.648 161.739 202.896 160.171 202.896C158.923 202.896 158.299 203.36 158.299 204.288C158.299 204.736 158.507 205.072 158.923 205.296C159.339 205.52 160.091 205.712 161.179 205.872L164.779 206.448C171.019 207.408 174.139 210.08 174.139 214.464C174.139 217.056 172.987 219.104 170.683 220.608C168.411 222.112 165.035 222.864 160.555 222.864C155.883 222.864 152.555 222.08 150.571 220.512C148.587 218.912 147.451 217.056 147.163 214.944ZM2.68 242.36V233.96H14.488V242.36H2.68ZM2.728 269V244.76H14.488V269H2.728ZM17.9624 269V244.76H29.1464V248.696C29.8504 247.256 30.9544 246.104 32.4584 245.24C33.9944 244.344 35.6264 243.896 37.3544 243.896C39.9144 243.896 41.9144 244.68 43.3544 246.248C44.7944 247.816 45.5144 249.992 45.5144 252.776V269H33.8024V254.552C33.8024 252.92 33.0984 252.104 31.6904 252.104C31.0824 252.104 30.5864 252.328 30.2024 252.776C29.8504 253.192 29.6744 253.784 29.6744 254.552V269H17.9624ZM47.2713 273.512C47.2713 271.4 48.3913 269.768 50.6313 268.616C48.6153 267.688 47.6073 266.184 47.6073 264.104C47.6073 261.704 49.0953 259.704 52.0713 258.104C50.3753 256.664 49.5273 254.856 49.5273 252.68C49.5273 249.768 50.6953 247.576 53.0312 246.104C55.3673 244.632 58.4073 243.896 62.1513 243.896C67.8153 243.896 71.6073 245.64 73.5273 249.128C73.7513 247.336 74.1993 246.168 74.8713 245.624C75.5433 245.048 76.4873 244.76 77.7033 244.76H80.1033V252.68H75.8793C75.0473 252.68 74.4553 253.192 74.1033 254.216L73.8153 255.032C73.1753 256.792 71.9913 258.248 70.2633 259.4C68.4713 260.616 65.8633 261.224 62.4393 261.224C59.9753 261.224 57.9433 260.808 56.3433 259.976C55.9593 260.52 55.7673 261 55.7673 261.416C55.7673 262.408 56.4073 262.904 57.6873 262.904H69.4953C72.5673 262.904 74.9353 263.624 76.5993 265.064C78.2633 266.472 79.0953 268.28 79.0953 270.488C79.0953 272.792 78.2473 274.68 76.5513 276.152C74.8553 277.624 72.5353 278.36 69.5913 278.36H53.7033C51.6873 278.36 50.1033 277.928 48.9513 277.064C47.8313 276.232 47.2713 275.048 47.2713 273.512ZM62.1033 256.232C63.6393 256.232 64.4073 255.096 64.4073 252.824C64.4073 250.552 63.6393 249.416 62.1033 249.416C60.6633 249.416 59.9433 250.552 59.9433 252.824C59.9433 255.096 60.6633 256.232 62.1033 256.232ZM58.0713 271.64H66.9513C67.9753 271.64 68.4873 271.192 68.4873 270.296C68.4873 269.912 68.3273 269.592 68.0073 269.336C67.7193 269.112 67.3673 269 66.9513 269H56.5833C56.2313 269.448 56.0553 269.864 56.0553 270.248C56.0553 271.176 56.7273 271.64 58.0713 271.64ZM82.3218 269V244.76H93.6018V251.672C94.9458 246.552 97.5218 243.992 101.33 243.992C102.29 243.992 103.218 244.088 104.114 244.28V254.6C102.706 254.312 101.41 254.168 100.226 254.168C96.1298 254.168 94.0818 256.248 94.0818 260.408V269H82.3218ZM105.41 256.712C105.41 252.936 106.706 249.864 109.298 247.496C111.89 245.096 115.234 243.896 119.33 243.896C123.778 243.896 127.202 245.016 129.602 247.256C132.002 249.496 133.202 252.568 133.202 256.472C133.202 257.272 133.154 258.072 133.058 258.872H116.642C116.642 261.432 117.554 262.712 119.378 262.712C120.978 262.712 122.114 261.768 122.786 259.88L133.49 262.472C131.282 267.4 126.594 269.864 119.426 269.864C114.914 269.864 111.442 268.728 109.01 266.456C106.61 264.184 105.41 260.936 105.41 256.712ZM116.738 254.072H122.066C122.13 253.016 121.906 252.168 121.394 251.528C120.914 250.888 120.258 250.568 119.426 250.568C117.666 250.568 116.77 251.736 116.738 254.072ZM135.131 256.856C135.131 252.952 136.059 249.816 137.915 247.448C139.803 245.08 142.299 243.896 145.403 243.896C146.907 243.896 148.283 244.248 149.531 244.952C150.811 245.656 151.835 246.6 152.603 247.784V244.712V235.4H163.979V269H152.603V265.928C150.875 268.552 148.475 269.864 145.403 269.864C142.203 269.864 139.691 268.68 137.867 266.312C136.043 263.944 135.131 260.792 135.131 256.856ZM152.795 256.808C152.795 253.064 151.835 251.192 149.915 251.192C147.995 251.192 147.035 253.064 147.035 256.808C147.035 260.68 147.995 262.616 149.915 262.616C151.835 262.616 152.795 260.68 152.795 256.808ZM167.399 242.36V233.96H179.207V242.36H167.399ZM167.447 269V244.76H179.207V269H167.447ZM181.769 256.712C181.769 252.936 183.065 249.864 185.657 247.496C188.249 245.096 191.593 243.896 195.689 243.896C200.137 243.896 203.561 245.016 205.961 247.256C208.361 249.496 209.561 252.568 209.561 256.472C209.561 257.272 209.513 258.072 209.417 258.872H193.001C193.001 261.432 193.913 262.712 195.737 262.712C197.337 262.712 198.473 261.768 199.145 259.88L209.849 262.472C207.641 267.4 202.953 269.864 195.785 269.864C191.273 269.864 187.801 268.728 185.369 266.456C182.969 264.184 181.769 260.936 181.769 256.712ZM193.097 254.072H198.425C198.489 253.016 198.265 252.168 197.753 251.528C197.273 250.888 196.617 250.568 195.785 250.568C194.025 250.568 193.129 251.736 193.097 254.072ZM212.306 269V244.76H223.49V248.696C224.194 247.256 225.298 246.104 226.802 245.24C228.338 244.344 229.97 243.896 231.698 243.896C234.258 243.896 236.258 244.68 237.698 246.248C239.138 247.816 239.858 249.992 239.858 252.776V269H228.146V254.552C228.146 252.92 227.442 252.104 226.034 252.104C225.426 252.104 224.93 252.328 224.546 252.776C224.194 253.192 224.018 253.784 224.018 254.552V269H212.306ZM245.517 260.84V251.96H241.101V244.76H245.517V237.56H256.797V244.76H261.645V251.96H256.797V259.4C256.797 260.36 257.277 260.84 258.237 260.84H262.941V269H253.677C248.237 269 245.517 266.28 245.517 260.84ZM263.754 256.712C263.754 252.936 265.05 249.864 267.642 247.496C270.234 245.096 273.578 243.896 277.674 243.896C282.122 243.896 285.546 245.016 287.946 247.256C290.346 249.496 291.546 252.568 291.546 256.472C291.546 257.272 291.498 258.072 291.402 258.872H274.986C274.986 261.432 275.898 262.712 277.722 262.712C279.322 262.712 280.458 261.768 281.13 259.88L291.834 262.472C289.626 267.4 284.938 269.864 277.77 269.864C273.258 269.864 269.786 268.728 267.354 266.456C264.954 264.184 263.754 260.936 263.754 256.712ZM275.082 254.072H280.41C280.474 253.016 280.25 252.168 279.738 251.528C279.258 250.888 278.602 250.568 277.77 250.568C276.01 250.568 275.114 251.736 275.082 254.072ZM292.851 261.944L303.459 261.128C303.555 262.76 304.515 263.576 306.339 263.576C308.003 263.576 308.835 263.064 308.835 262.04C308.835 261.208 308.003 260.632 306.339 260.312L303.651 259.832C300.131 259.192 297.651 258.328 296.211 257.24C294.771 256.12 294.051 254.376 294.051 252.008C294.051 249.672 295.123 247.736 297.267 246.2C299.411 244.664 302.483 243.896 306.483 243.896C310.739 243.896 313.827 244.568 315.747 245.912C317.667 247.224 318.803 248.856 319.155 250.808L308.595 252.152C308.339 250.648 307.427 249.896 305.859 249.896C304.611 249.896 303.987 250.36 303.987 251.288C303.987 251.736 304.195 252.072 304.611 252.296C305.027 252.52 305.779 252.712 306.867 252.872L310.467 253.448C316.707 254.408 319.827 257.08 319.827 261.464C319.827 264.056 318.675 266.104 316.371 267.608C314.099 269.112 310.723 269.864 306.243 269.864C301.571 269.864 298.243 269.08 296.259 267.512C294.275 265.912 293.139 264.056 292.851 261.944ZM347.368 278.36V269.048V265.976C346.6 267.16 345.576 268.104 344.296 268.808C343.048 269.512 341.672 269.864 340.168 269.864C337.064 269.864 334.568 268.68 332.68 266.312C330.824 263.944 329.896 260.808 329.896 256.904C329.896 252.968 330.808 249.816 332.632 247.448C334.456 245.08 336.968 243.896 340.168 243.896C343.432 243.896 345.832 245.208 347.368 247.832V244.76H358.744V278.36H347.368ZM347.56 256.808C347.56 253.064 346.6 251.192 344.68 251.192C342.76 251.192 341.8 253.064 341.8 256.808C341.8 260.68 342.76 262.616 344.68 262.616C346.6 262.616 347.56 260.68 347.56 256.808ZM362.02 260.984V244.76H373.78V259.112C373.78 259.88 373.972 260.504 374.356 260.984C374.772 261.432 375.284 261.656 375.892 261.656C376.468 261.656 376.948 261.432 377.332 260.984C377.716 260.504 377.908 259.88 377.908 259.112V244.76H389.476V269H378.436V265.736C377.764 266.824 376.692 267.784 375.22 268.616C373.78 269.448 372.148 269.864 370.324 269.864C368.052 269.864 366.1 269.096 364.468 267.56C362.836 266.024 362.02 263.832 362.02 260.984ZM392.004 256.712C392.004 252.936 393.3 249.864 395.892 247.496C398.484 245.096 401.828 243.896 405.924 243.896C410.372 243.896 413.796 245.016 416.196 247.256C418.596 249.496 419.796 252.568 419.796 256.472C419.796 257.272 419.748 258.072 419.652 258.872H403.236C403.236 261.432 404.148 262.712 405.972 262.712C407.572 262.712 408.708 261.768 409.38 259.88L420.084 262.472C417.876 267.4 413.188 269.864 406.02 269.864C401.508 269.864 398.036 268.728 395.604 266.456C393.204 264.184 392.004 260.936 392.004 256.712ZM403.332 254.072H408.66C408.724 253.016 408.5 252.168 407.988 251.528C407.508 250.888 406.852 250.568 406.02 250.568C404.26 250.568 403.364 251.736 403.332 254.072ZM8.776 316L0.568 291.76H12.664L13.816 296.32L16.696 307.744C17.976 302.496 18.904 298.784 19.48 296.608L20.728 291.76H31.864L24.04 316H8.776ZM34.252 313.408C31.628 311.072 30.316 307.904 30.316 303.904C30.316 299.904 31.644 296.736 34.3 294.4C36.956 292.064 40.556 290.896 45.1 290.896C49.676 290.896 53.308 292.08 55.996 294.448C58.716 296.784 60.076 299.936 60.076 303.904C60.076 307.872 58.716 311.024 55.996 313.36C53.308 315.696 49.676 316.864 45.1 316.864C40.524 316.864 36.908 315.712 34.252 313.408ZM47.836 303.808C47.836 301.824 47.612 300.4 47.164 299.536C46.748 298.64 46.076 298.192 45.148 298.192C44.22 298.192 43.548 298.624 43.132 299.488C42.748 300.352 42.556 301.792 42.556 303.808C42.556 305.856 42.748 307.328 43.132 308.224C43.548 309.12 44.22 309.568 45.148 309.568C46.94 309.568 47.836 307.648 47.836 303.808ZM61.7223 304.096C61.7223 300.128 62.9863 296.944 65.5143 294.544C68.0423 292.112 71.4183 290.896 75.6423 290.896C79.3543 290.896 82.4263 291.712 84.8583 293.344C87.3223 294.976 88.8743 297.232 89.5143 300.112L78.5703 302.32C78.3143 299.536 77.3223 298.144 75.5943 298.144C73.7703 298.144 72.8583 300.032 72.8583 303.808C72.8583 307.68 73.7703 309.616 75.5943 309.616C77.1943 309.616 78.1863 308.224 78.5703 305.44L89.7063 306.832C88.3943 313.52 83.7063 316.864 75.6423 316.864C71.2583 316.864 67.8343 315.728 65.3703 313.456C62.9383 311.152 61.7223 308.032 61.7223 304.096ZM90.8785 303.712C90.8785 299.936 92.1745 296.864 94.7665 294.496C97.3585 292.096 100.703 290.896 104.799 290.896C109.247 290.896 112.671 292.016 115.071 294.256C117.471 296.496 118.671 299.568 118.671 303.472C118.671 304.272 118.623 305.072 118.527 305.872H102.111C102.111 308.432 103.023 309.712 104.847 309.712C106.447 309.712 107.583 308.768 108.255 306.88L118.959 309.472C116.751 314.4 112.063 316.864 104.895 316.864C100.383 316.864 96.9105 315.728 94.4785 313.456C92.0785 311.184 90.8785 307.936 90.8785 303.712ZM102.207 301.072H107.535C107.599 300.016 107.375 299.168 106.863 298.528C106.383 297.888 105.727 297.568 104.895 297.568C103.135 297.568 102.239 298.736 102.207 301.072ZM93.1825 288.832L98.7505 281.44H110.847L116.415 288.832H107.583L104.799 285.28L102.015 288.832H93.1825ZM132.782 307.84V298.96H128.366V291.76H132.782V284.56H144.062V291.76H148.91V298.96H144.062V306.4C144.062 307.36 144.542 307.84 145.502 307.84H150.206V316H140.942C135.502 316 132.782 313.28 132.782 307.84ZM151.019 303.712C151.019 299.936 152.315 296.864 154.907 294.496C157.499 292.096 160.843 290.896 164.939 290.896C169.387 290.896 172.811 292.016 175.211 294.256C177.611 296.496 178.811 299.568 178.811 303.472C178.811 304.272 178.763 305.072 178.667 305.872H162.251C162.251 308.432 163.163 309.712 164.987 309.712C166.587 309.712 167.723 308.768 168.395 306.88L179.099 309.472C176.891 314.4 172.203 316.864 165.035 316.864C160.523 316.864 157.051 315.728 154.619 313.456C152.219 311.184 151.019 307.936 151.019 303.712ZM162.347 301.072H167.675C167.739 300.016 167.515 299.168 167.003 298.528C166.523 297.888 165.867 297.568 165.035 297.568C163.275 297.568 162.379 298.736 162.347 301.072ZM181.556 316V291.76H192.788V295.936C193.492 294.56 194.564 293.376 196.004 292.384C197.444 291.392 199.06 290.896 200.852 290.896C202.42 290.896 203.812 291.344 205.028 292.24C206.244 293.104 207.14 294.336 207.716 295.936C208.452 294.464 209.492 293.264 210.836 292.336C212.18 291.376 213.764 290.896 215.588 290.896C217.892 290.896 219.828 291.68 221.396 293.248C222.996 294.784 223.796 296.96 223.796 299.776V316H212.18V301.6C212.18 300.832 212.004 300.224 211.652 299.776C211.3 299.328 210.836 299.104 210.26 299.104C209.684 299.104 209.204 299.328 208.82 299.776C208.468 300.224 208.292 300.832 208.292 301.6V316H197.06V301.6C197.06 300.832 196.868 300.224 196.484 299.776C196.132 299.328 195.668 299.104 195.092 299.104C194.516 299.104 194.052 299.328 193.7 299.776C193.348 300.224 193.172 300.832 193.172 301.6V316H181.556ZM234.55 303.712C234.55 299.936 235.846 296.864 238.438 294.496C241.03 292.096 244.374 290.896 248.47 290.896C252.918 290.896 256.342 292.016 258.742 294.256C261.142 296.496 262.342 299.568 262.342 303.472C262.342 304.272 262.294 305.072 262.198 305.872H245.782C245.782 308.432 246.694 309.712 248.518 309.712C250.118 309.712 251.254 308.768 251.926 306.88L262.63 309.472C260.422 314.4 255.734 316.864 248.566 316.864C244.054 316.864 240.582 315.728 238.15 313.456C235.75 311.184 234.55 307.936 234.55 303.712ZM245.878 301.072H251.206C251.27 300.016 251.046 299.168 250.534 298.528C250.054 297.888 249.398 297.568 248.566 297.568C246.806 297.568 245.91 298.736 245.878 301.072ZM265.087 316V291.76H276.319V295.936C277.023 294.56 278.095 293.376 279.535 292.384C280.975 291.392 282.591 290.896 284.383 290.896C285.951 290.896 287.343 291.344 288.559 292.24C289.775 293.104 290.671 294.336 291.247 295.936C291.983 294.464 293.023 293.264 294.367 292.336C295.711 291.376 297.295 290.896 299.119 290.896C301.423 290.896 303.359 291.68 304.927 293.248C306.527 294.784 307.327 296.96 307.327 299.776V316H295.711V301.6C295.711 300.832 295.535 300.224 295.183 299.776C294.831 299.328 294.367 299.104 293.791 299.104C293.215 299.104 292.735 299.328 292.351 299.776C291.999 300.224 291.823 300.832 291.823 301.6V316H280.591V301.6C280.591 300.832 280.399 300.224 280.015 299.776C279.663 299.328 279.199 299.104 278.623 299.104C278.047 299.104 277.583 299.328 277.231 299.776C276.879 300.224 276.703 300.832 276.703 301.6V316H265.087ZM1.816 351.096C1.816 347.128 3.08 343.944 5.608 341.544C8.136 339.112 11.512 337.896 15.736 337.896C19.448 337.896 22.52 338.712 24.952 340.344C27.416 341.976 28.968 344.232 29.608 347.112L18.664 349.32C18.408 346.536 17.416 345.144 15.688 345.144C13.864 345.144 12.952 347.032 12.952 350.808C12.952 354.68 13.864 356.616 15.688 356.616C17.288 356.616 18.28 355.224 18.664 352.44L29.8 353.832C28.488 360.52 23.8 363.864 15.736 363.864C11.352 363.864 7.928 362.728 5.464 360.456C3.032 358.152 1.816 355.032 1.816 351.096ZM31.1643 356.616C31.1643 353.96 32.5243 351.864 35.2443 350.328C37.9963 348.76 41.8843 347.848 46.9083 347.592V346.824C46.9083 345.256 46.1083 344.472 44.5083 344.472C43.6443 344.472 43.0043 344.68 42.5883 345.096C42.2043 345.48 41.9323 346.168 41.7723 347.16L30.7803 345.864C31.1643 343.368 32.6203 341.416 35.1483 340.008C37.7083 338.6 41.0363 337.896 45.1323 337.896C49.1643 337.896 52.2683 338.76 54.4443 340.488C56.6203 342.184 57.7083 344.616 57.7083 347.784V353.784C57.7083 354.808 58.0923 355.32 58.8603 355.32H60.3003V363H54.0603C52.2683 363 50.9243 362.728 50.0283 362.184C49.1323 361.64 48.5403 360.76 48.2523 359.544C47.5483 360.664 46.4283 361.672 44.8923 362.568C43.3883 363.432 41.6603 363.864 39.7083 363.864C36.9243 363.864 34.7963 363.24 33.3242 361.992C31.8843 360.744 31.1643 358.952 31.1643 356.616ZM46.9083 353.448V352.104C43.6443 352.392 42.0123 353.464 42.0123 355.32C42.0123 355.864 42.1883 356.296 42.5403 356.616C42.8923 356.936 43.3403 357.096 43.8843 357.096C44.7483 357.096 45.4683 356.76 46.0443 356.088C46.6203 355.384 46.9083 354.504 46.9083 353.448ZM60.913 355.944L71.521 355.128C71.617 356.76 72.577 357.576 74.401 357.576C76.065 357.576 76.897 357.064 76.897 356.04C76.897 355.208 76.065 354.632 74.401 354.312L71.713 353.832C68.193 353.192 65.713 352.328 64.273 351.24C62.833 350.12 62.113 348.376 62.113 346.008C62.113 343.672 63.185 341.736 65.329 340.2C67.473 338.664 70.545 337.896 74.545 337.896C78.801 337.896 81.889 338.568 83.809 339.912C85.729 341.224 86.865 342.856 87.217 344.808L76.657 346.152C76.401 344.648 75.489 343.896 73.921 343.896C72.673 343.896 72.049 344.36 72.049 345.288C72.049 345.736 72.257 346.072 72.673 346.296C73.089 346.52 73.841 346.712 74.929 346.872L78.529 347.448C84.769 348.408 87.889 351.08 87.889 355.464C87.889 358.056 86.737 360.104 84.433 361.608C82.161 363.112 78.785 363.864 74.305 363.864C69.633 363.864 66.305 363.08 64.321 361.512C62.337 359.912 61.201 358.056 60.913 355.944ZM89.6643 356.616C89.6643 353.96 91.0243 351.864 93.7443 350.328C96.4963 348.76 100.384 347.848 105.408 347.592V346.824C105.408 345.256 104.608 344.472 103.008 344.472C102.144 344.472 101.504 344.68 101.088 345.096C100.704 345.48 100.432 346.168 100.272 347.16L89.2803 345.864C89.6643 343.368 91.1203 341.416 93.6483 340.008C96.2083 338.6 99.5363 337.896 103.632 337.896C107.664 337.896 110.768 338.76 112.944 340.488C115.12 342.184 116.208 344.616 116.208 347.784V353.784C116.208 354.808 116.592 355.32 117.36 355.32H118.8V363H112.56C110.768 363 109.424 362.728 108.528 362.184C107.632 361.64 107.04 360.76 106.752 359.544C106.048 360.664 104.928 361.672 103.392 362.568C101.888 363.432 100.16 363.864 98.2083 363.864C95.4243 363.864 93.2963 363.24 91.8242 361.992C90.3843 360.744 89.6643 358.952 89.6643 356.616ZM105.408 353.448V352.104C102.144 352.392 100.512 353.464 100.512 355.32C100.512 355.864 100.688 356.296 101.04 356.616C101.392 356.936 101.84 357.096 102.384 357.096C103.248 357.096 103.968 356.76 104.544 356.088C105.12 355.384 105.408 354.504 105.408 353.448ZM122.168 363V352.728H134.024V363H122.168Z" fill="#1E1E1E"/>
</svg>
