<svg width="93" height="85" viewBox="0 0 93 85" fill="none" xmlns="http://www.w3.org/2000/svg">
<path d="M26.0324 1.04481e-06C23.4095 -0.00197154 20.3186 2.78923 20.3186 8.16767C20.3186 11.8603 19.3946 15.0011 17.8545 17.3343C16.3141 19.6668 14.0869 21.2439 11.5885 21.4209C9.09066 21.5984 6.56912 20.246 4.8019 17.6978C3.62284 15.9978 2.73139 13.7199 2.1291 10.9109C0.580238 13.6213 -0.0805067 16.3207 0.00777567 18.9058C0.134314 22.6123 1.76911 26.1696 4.80838 29.2252C12.8097 37.2703 32.5006 30.5551 32.5006 13.58C32.5006 8.50143 31.5373 5.03561 30.2877 2.94073C29.038 0.845844 27.6205 0.100603 26.2841 0.00651075C26.2006 0.000593006 26.1174 0.000198195 26.0326 0.000198195L26.0324 1.04481e-06ZM66.9672 0.141632C66.8829 0.141632 66.7995 0.142027 66.7161 0.147945C65.3795 0.24184 63.9623 0.987277 62.7126 3.08196C61.4629 5.17684 60.4996 8.64267 60.4996 13.7217C60.4996 30.6967 80.1841 37.4057 88.1858 29.3603C91.2247 26.3048 92.8655 22.7474 92.9923 19.0417C93.0806 16.4551 92.4149 13.758 90.8647 11.0465C90.2624 13.856 89.377 16.133 88.1978 17.8333C86.4309 20.3813 83.9033 21.7398 81.4051 21.5627C78.9071 21.3855 76.6859 19.8085 75.1457 17.4755C73.8721 15.5467 73.0544 13.0411 72.7974 10.1525H72.6812V8.3093C72.6812 2.93086 69.5902 0.140054 66.9672 0.141632ZM46.7727 1.33149C42.9283 1.33347 38.9992 2.98215 35.4738 6.47855C35.9199 8.52254 36.1667 10.8794 36.1667 13.5798C36.1667 22.8837 31.0667 29.8394 24.5428 33.497C24.4345 34.3933 24.3406 35.2914 24.2609 36.1908C23.7606 38.0523 23.5645 40.1537 23.703 42.3858C23.9103 45.7185 24.8342 48.7423 26.2781 51.0652C27.4285 52.9161 28.9962 54.4186 30.8943 54.9551C33.9072 62.0718 35.0839 70.4912 35.1495 80.2349C36.4992 81.4544 37.847 82.4285 39.1955 83.1692C39.6762 77.0601 39.0131 70.9798 38.8091 64.6516L38.6011 58.3083L42.1567 63.5544L46.1785 69.4907L50.4513 63.425L53.9032 58.5302L53.7804 64.5281C53.6529 70.7693 53.1899 76.8981 53.4555 82.9224C54.7591 82.2056 56.0736 81.3045 57.3974 80.2042C57.4288 72.8366 57.8551 66.0101 59.6045 59.8742C60.0667 58.2537 60.6272 56.6815 61.2967 55.1644C63.8232 55.1033 65.8741 53.3471 67.2927 51.0654C68.7366 48.7421 69.6602 45.7183 69.8674 42.3856C70.0106 40.0771 69.7987 37.9071 69.2604 35.9994C69.1976 35.309 69.129 34.6289 69.0519 33.9592C62.2474 30.3967 56.8336 23.3049 56.8336 13.7217C56.8336 10.7727 57.1269 8.23395 57.655 6.06549C54.2379 2.84722 50.4668 1.32932 46.7727 1.3313V1.33149ZM31.029 33.053C31.8569 33.053 33.0073 33.7465 34.0514 35.426C35.0957 37.106 35.9022 39.6102 36.0749 42.3856C36.2475 45.1611 35.7482 47.6412 34.9409 49.265C34.133 50.889 33.2365 51.4842 32.4086 51.4842C31.5807 51.4842 30.4303 50.7908 29.3862 49.1112C28.3421 47.4313 27.5356 44.9273 27.363 42.1515C27.1903 39.3761 27.6896 36.8961 28.4973 35.2721C29.3046 33.6481 30.2011 33.053 31.029 33.053ZM62.5409 33.053C63.3688 33.053 64.2654 33.6481 65.0729 35.2721C65.8806 36.8961 66.3795 39.3759 66.2068 42.1515C66.0346 44.9269 65.2279 47.4313 64.1842 49.1108C63.1399 50.7908 61.9895 51.4844 61.1616 51.4844C60.3337 51.4844 59.4371 50.889 58.6292 49.2652C57.8218 47.6412 57.3227 45.1613 57.4953 42.3858C57.6679 39.6104 58.4743 37.106 59.5183 35.4262C60.5624 33.7467 61.7128 33.0532 62.5407 33.0532L62.5409 33.053ZM49.9116 70.5691L47.6432 73.7868L46.1169 75.9507L44.6331 73.756L42.7814 71.0252C43.0252 75.4443 43.2263 79.9235 42.751 84.5867C43.8643 84.8699 44.9771 85.0072 46.092 84.9997C47.3348 84.9912 48.5943 84.8025 49.8685 84.4326C49.5726 79.7517 49.7361 75.139 49.9116 70.5687V70.5691Z" fill="black"/>
</svg>
