<svg width="596" height="131" viewBox="0 0 596 131" fill="none" xmlns="http://www.w3.org/2000/svg">
<path d="M0 127.033V0.0403976H48.0756V90.749H105.766V127.033H0Z" fill="black"/>
<path d="M111.854 102.904C111.854 92.8656 116.994 84.9437 127.274 79.1383C137.675 73.212 152.37 69.7651 171.359 68.7976V65.8949C171.359 59.9686 168.335 57.0054 162.288 57.0054C159.022 57.0054 156.603 57.7916 155.031 59.3638C153.58 60.8152 152.552 63.4155 151.947 67.1648L110.402 62.2665C111.854 52.8328 117.357 45.4552 126.911 40.1336C136.587 34.8121 149.165 32.1513 164.646 32.1513C179.885 32.1513 191.617 35.4168 199.841 41.9478C208.065 48.3579 212.177 57.5497 212.177 69.5232V92.2004C212.177 96.0706 213.629 98.0057 216.532 98.0057H221.974V127.033H198.39C191.617 127.033 186.537 126.004 183.151 123.948C179.764 121.892 177.527 118.566 176.438 113.97C173.777 118.204 169.544 122.013 163.739 125.4C158.055 128.665 151.524 130.298 144.146 130.298C133.624 130.298 125.581 127.94 120.017 123.223C114.575 118.506 111.854 111.733 111.854 102.904ZM171.359 90.9305V85.8508C159.022 86.9393 152.854 90.9909 152.854 98.0057C152.854 100.062 153.519 101.695 154.85 102.904C156.18 104.113 157.873 104.718 159.929 104.718C163.195 104.718 165.916 103.448 168.093 100.908C170.27 98.2476 171.359 94.9216 171.359 90.9305Z" fill="black"/>
<path d="M229.732 127.033V35.4168H272.366V61.5409C277.445 42.1897 287.181 32.5141 301.574 32.5141C305.202 32.5141 308.709 32.8769 312.096 33.6026V72.6073C306.774 71.5188 301.876 70.9746 297.401 70.9746C281.92 70.9746 274.18 78.836 274.18 94.5588V127.033H229.732Z" fill="black"/>
<path d="M320.441 127.033V35.4168H364.888V127.033H320.441Z" fill="black"/>
<path d="M374.573 82.041C374.573 67.0439 379.35 55.0098 388.905 45.939C398.46 36.7472 411.219 32.1513 427.184 32.1513C441.214 32.1513 452.824 35.2354 462.016 41.4035C471.329 47.5717 477.195 56.0983 479.614 66.9834L458.932 71.156L438.25 75.3286C437.283 64.8064 433.534 59.5453 427.003 59.5453C420.109 59.5453 416.662 66.681 416.662 80.9525C416.662 95.5868 420.109 102.904 427.003 102.904C433.05 102.904 436.799 97.6429 438.25 87.1207L480.339 92.3818C475.38 117.659 457.662 130.298 427.184 130.298C410.615 130.298 397.673 126.004 388.361 117.417C379.169 108.709 374.573 96.9172 374.573 82.041Z" fill="black"/>
<path d="M485.495 102.904C485.495 92.8656 490.636 84.9437 500.916 79.1383C511.317 73.212 526.012 69.7651 545 68.7976V65.8949C545 59.9686 541.977 57.0054 535.929 57.0054C532.664 57.0054 530.245 57.7916 528.673 59.3638C527.221 60.8152 526.193 63.4155 525.589 67.1648L484.044 62.2665C485.495 52.8328 490.998 45.4552 500.553 40.1336C510.229 34.8121 522.807 32.1513 538.288 32.1513C553.527 32.1513 565.259 35.4168 573.483 41.9478C581.707 48.3579 585.819 57.5497 585.819 69.5232V92.2004C585.819 96.0706 587.271 98.0057 590.173 98.0057H595.616V127.033H572.031C565.259 127.033 560.179 126.004 556.792 123.948C553.406 121.892 551.169 118.566 550.08 113.97C547.419 118.204 543.186 122.013 537.381 125.4C531.696 128.665 525.165 130.298 517.788 130.298C507.266 130.298 499.223 127.94 493.659 123.223C488.217 118.506 485.495 111.733 485.495 102.904ZM545 90.9305V85.8508C532.664 86.9393 526.496 90.9909 526.496 98.0057C526.496 100.062 527.161 101.695 528.491 102.904C529.822 104.113 531.515 104.718 533.571 104.718C536.837 104.718 539.558 103.448 541.735 100.908C543.912 98.2476 545 94.9216 545 90.9305Z" fill="black"/>
<path d="M320.441 6V31H364.888V6H320.441Z" fill="black"/>
</svg>
